<svg width="26" height="27" viewBox="0 0 26 27" fill="none" xmlns="http://www.w3.org/2000/svg">
<path d="M21.3059 19.2892H19.9805L19.5108 18.8207C21.1549 16.8423 22.1447 14.274 22.1447 11.48C22.1447 5.24998 17.2627 0.200012 11.2398 0.200012C5.21696 0.200012 0.33493 5.24998 0.33493 11.48C0.33493 17.71 5.21696 22.76 11.2398 22.76C13.9409 22.76 16.4238 21.7361 18.3364 20.0354L18.7894 20.5214V21.8923L23.3744 26.2L25.4703 24.032L21.3059 19.2892ZM11.2398 19.2892C7.06241 19.2892 3.69028 15.8011 3.69028 11.48C3.69028 7.1589 7.06241 3.67078 11.2398 3.67078C15.4172 3.67078 18.7894 7.1589 18.7894 11.48C18.7894 15.8011 15.4172 19.2892 11.2398 19.2892Z" fill="#B5BDDB"/>
</svg>
